<?xml version="1.0" encoding="UTF-8" standalone="no"?>

<svg
	version="1.1"
	width="360"
	height="360"
	viewBox="0 0 360 360"
	xmlns="http://www.w3.org/2000/svg"
>
	<path
		style="fill: #e8bd36;"
		d="M 130,100 h40 v-40 h20 v40 h40 v20 h20 v20 h40 v20 h40 v20 h-20 v40 h20 v100 h-20 v20 h-40 v-20 h-20 v-100 h-20 v-20 h-20 v40 h-20 v-40 h-20 v40 h-20 v-40 h-20 v20 h-20 v100 h-20 v20 h-40 v-20 h-20 v-100 h20 v-40 h-20 v-20 h40 v-20 h40 v-20 h20 z"
	/>
	<path
		style="fill: #e8bd36;"
		d="M 150,20 h20 v40 h-40 v-10 h20 z"
	/>
	<path
		style="fill: #e8bd36;"
		d="M 190,20 h20 v30 h20 v10 h-40 z"
	/>
	<path
		style="fill: #e8bd36;"
		d="M 90,60 h40 v40 h-20 v-20 h-20 z"
	/>
	<path
		style="fill: #e8bd36;"
		d="M 230,60 h40 v20 h-20 v20 h-20 z"
	/>
</svg>
